<?xml version="1.0" encoding="utf-8"?>
<!-- Generator: Adobe Illustrator 24.3.0, SVG Export Plug-In . SVG Version: 6.00 Build 0)  -->
<svg version="1.1" id="Layer_1" xmlns="http://www.w3.org/2000/svg" xmlns:xlink="http://www.w3.org/1999/xlink" x="0px" y="0px"
	 viewBox="0 0 911.82 437.63" style="enable-background:new 0 0 911.82 437.63;" xml:space="preserve">
<style type="text/css">
	.st0{fill:#FFFFFF;}
	.st1{fill:#1ED700;}
</style>
<g id="Standart_Black_1_">
	<path class="st0" d="M90.89,0C37.12,0,0,47.34,0,107.82s37.12,107.82,90.89,107.82c53.47,0,95.26-47.33,95.26-107.82
		S144.36,0,90.89,0z M149.33,123.31c0,38.57-21.92,61.65-58.44,61.65c-36.53,0-58.44-23.08-58.44-61.65V92.63
		c0-38.86,21.62-61.95,58.44-61.95c36.82,0,58.44,22.79,58.44,61.95V123.31z M213.68,0h30.81v215.64h-30.81V0z M671.57,57
		c-18.09,0-37.07,9.78-48.04,24.02V59.96H592.4v217.07h33.51v-79.77c11.27,13.64,26.99,21.35,44.48,21.35
		c39.74,0,71.76-36.18,71.76-80.95C742.15,93.17,710.72,57,671.57,57z M705.67,150.41c0,27.58-12.16,39.73-40.03,39.73
		c-27.58,0-39.73-12.16-39.73-39.73V125.5c0-27.87,12.16-39.74,39.73-39.74c27.88,0,40.03,11.86,40.03,39.74V150.41z M835.32,57
		c-43.3,0-76.21,34.69-76.21,80.66c0,45.96,32.92,80.95,76.21,80.95c43.59,0,76.51-34.99,76.51-80.95
		C911.82,91.69,878.91,57,835.32,57z M875.35,150.11c0,27.87-12.16,40.03-40.03,40.03c-27.58,0-39.74-12.16-39.74-40.03V125.2
		c0-27.58,12.16-39.44,39.74-39.44c27.87,0,40.03,11.86,40.03,39.44V150.11z M287.99,121.31h30.81v94.33h-30.81V121.31z
		 M518.07,121.31h30.81v94.33h-30.81V121.31z M415.39,90.51h-28.59V59.7h29.24c32.91,0,60.49,19.27,64.64,49.82h-34.1
		c-0.59-17.49-8.01-19.01-30.24-19.01C416.01,90.51,415.7,90.51,415.39,90.51L415.39,90.51z M482.82,166.4
		c0,28.17-28.17,52.21-64.64,52.21c-37.07,0-64.94-20.46-68.5-50.41h33.81c1.19,18.39,9.19,23.72,34.1,23.72
		c22.24,0,32.32-5.63,32.32-17.5v-6.55c0-9.49-5.93-13.34-22.24-15.12l-11.58-1.06h-29.3v-30.38h29.3l20.18,2.08
		C465.03,126.36,482.82,142.38,482.82,166.4z M386.79,90.5v30.81h-30.81V90.5H386.79z"/>
	<path class="st0" d="M387.2,385.19h7.96v37h-7.96V385.19z M387.2,379.06h7.96v-7.47h-7.96V379.06z M126.99,391.33
		c5.92,0,8.25,2.11,8.67,8.1h8.39c-1.41-8.74-8.39-14.94-16.92-14.94c-10.01,0-17.55,8.32-17.55,19.17
		c0,10.92,7.61,19.24,17.55,19.24c8.46,0,15.51-6.2,16.92-15.01h-8.39c-0.42,5.99-2.75,8.25-8.67,8.25c-6.13,0-8.74-2.89-8.74-9.52
		v-5.92C118.25,394.15,120.86,391.33,126.99,391.33z M185.6,403.66c0,10.92-7.82,19.24-18.19,19.24c-10.29,0-18.12-8.32-18.12-19.24
		c0-10.92,7.82-19.17,18.12-19.17C177.78,384.49,185.6,392.74,185.6,403.66z M176.93,400.7c0-6.56-2.89-9.37-9.52-9.37
		c-6.56,0-9.44,2.82-9.44,9.37v5.92c0,6.63,2.89,9.52,9.44,9.52c6.63,0,9.52-2.89,9.52-9.52V400.7z M212.43,384.49
		c-4.86,0-9.09,2.19-11.91,6.06v-5.36h-7.4v37h7.96v-23.19c0-5.29,2.54-7.61,8.46-7.61c5.64,0,8.11,2.26,8.11,7.26v23.54h7.96
		v-23.12C225.61,390.62,219.97,384.49,212.43,384.49z M254.2,384.49c-4.86,0-9.09,2.19-11.91,6.06v-5.36h-7.4v37h7.96v-23.19
		c0-5.29,2.54-7.61,8.46-7.61c5.64,0,8.11,2.26,8.11,7.26v23.54h7.96v-23.12C267.38,390.62,261.74,384.49,254.2,384.49z
		 M309.59,402.96v2.96h-26.57v1.76c0,6.13,2.82,8.67,9.37,8.67c5.64,0,8.11-1.69,8.53-5.85h8.53c-2.25,7.05-9.37,12.41-16.99,12.41
		c-10.22,0-17.97-7.61-17.97-18.68c0-10.85,7.61-19.74,18.04-19.74C302.12,384.49,309.59,392.67,309.59,402.96z M300.99,399.15
		c0-5.85-2.33-8.25-8.46-8.25c-6.56,0-9.52,2.47-9.52,8.25V400h17.97V399.15z M331.95,391.33c5.92,0,8.25,2.11,8.67,8.1H349
		c-1.41-8.74-8.39-14.94-16.92-14.94c-10.01,0-17.55,8.32-17.55,19.17c0,10.92,7.61,19.24,17.55,19.24c8.46,0,15.51-6.2,16.92-15.01
		h-8.39c-0.42,5.99-2.75,8.25-8.67,8.25c-6.13,0-8.74-2.89-8.74-9.52v-5.92C323.21,394.15,325.81,391.33,331.95,391.33z
		 M367.64,371.59h-7.89v13.6h-7.68v6.63h7.68v19.52c0,6.84,4.65,11.21,11.98,11.21h5.22v-7.19h-5.64c-2.4,0-3.67-1.2-3.67-3.6
		v-19.95h10.01v-6.63h-10.01V371.59z M424.56,384.49c-4.86,0-9.09,2.19-11.91,6.06v-5.36h-7.4v37h7.96v-23.19
		c0-5.29,2.54-7.61,8.46-7.61c5.64,0,8.11,2.26,8.11,7.26v23.54h7.96v-23.12C437.74,390.62,432.1,384.49,424.56,384.49z
		 M472.96,385.19h7.47v37.57c0,8.18-7.05,14.87-16.85,14.87c-9.52,0-16.71-6.41-17.34-14.31h8.1c0,5.78,2.33,7.54,9.09,7.54
		c6.41,0,9.02-2.04,9.02-8.18v-6.77c-2.82,2.96-6.7,4.65-10.57,4.65c-9.44,0-16.56-7.68-16.56-18.04c0-10.43,6.91-17.97,16.42-17.97
		c4.3,0,8.88,2.19,11.21,5.29V385.19z M472.47,399.86c0-5.92-2.82-8.53-9.23-8.53c-6.42,0-9.3,2.61-9.3,8.53v5.07
		c0,6.06,2.89,8.74,9.3,8.74c6.41,0,9.23-2.68,9.23-8.74V399.86z M509.41,422.2h7.96v-37h-7.96V422.2z M509.41,379.06h7.96v-7.47
		h-7.96V379.06z M524.13,379.06h14.31v43.14h8.18v-43.14h14.31v-7.47h-36.79V379.06z M618.9,403.66c0,10.64-7.61,19.24-17.06,19.24
		c-4.16,0-7.9-1.83-10.57-5.08v18.96h-7.96v-51.6h7.4v5c2.61-3.38,7.12-5.71,11.42-5.71C611.43,384.49,618.9,393.09,618.9,403.66z
		 M610.23,400.77c0-6.63-2.89-9.44-9.52-9.44c-6.56,0-9.44,2.82-9.44,9.44v5.92c0,6.56,2.89,9.44,9.44,9.44
		c6.63,0,9.52-2.89,9.52-9.44V400.77z M659.4,402.96v2.96h-26.57v1.76c0,6.13,2.82,8.67,9.37,8.67c5.64,0,8.11-1.69,8.53-5.85h8.53
		c-2.25,7.05-9.37,12.41-16.99,12.41c-10.22,0-17.97-7.61-17.97-18.68c0-10.85,7.61-19.74,18.04-19.74
		C651.93,384.49,659.4,392.67,659.4,402.96z M650.8,399.15c0-5.85-2.33-8.25-8.46-8.25c-6.56,0-9.52,2.47-9.52,8.25V400h17.97
		V399.15z M701.07,403.66c0,10.92-7.82,19.24-18.19,19.24c-10.29,0-18.12-8.32-18.12-19.24c0-10.92,7.82-19.17,18.12-19.17
		C693.25,384.49,701.07,392.74,701.07,403.66z M692.4,400.7c0-6.56-2.89-9.37-9.52-9.37c-6.56,0-9.44,2.82-9.44,9.37v5.92
		c0,6.63,2.89,9.52,9.44,9.52c6.63,0,9.52-2.89,9.52-9.52V400.7z M744.17,403.66c0,10.64-7.61,19.24-17.06,19.24
		c-4.16,0-7.9-1.83-10.57-5.08v18.96h-7.96v-51.6h7.4v5c2.61-3.38,7.12-5.71,11.42-5.71C736.7,384.49,744.17,393.09,744.17,403.66z
		 M735.5,400.77c0-6.63-2.89-9.44-9.52-9.44c-6.56,0-9.44,2.82-9.44,9.44v5.92c0,6.56,2.89,9.44,9.44,9.44
		c6.63,0,9.52-2.89,9.52-9.44V400.77z M751.68,422.2h7.96v-50.61h-7.96V422.2z M775.67,405.92v1.76c0,6.13,2.82,8.67,9.37,8.67
		c5.64,0,8.11-1.69,8.53-5.85h8.53c-2.25,7.05-9.37,12.41-16.99,12.41c-10.22,0-17.97-7.61-17.97-18.68
		c0-10.85,7.61-19.74,18.04-19.74c9.59,0,17.06,8.18,17.06,18.47v2.96H775.67z M775.67,400h17.97v-0.85c0-5.85-2.33-8.25-8.46-8.25
		c-6.56,0-9.52,2.47-9.52,8.25V400z"/>
	<path class="st1" d="M287.99,0h30.81v30.81h-30.81V0z M518.07,0v30.81h30.81V0H518.07z M518.07,121.31h30.81V59.7h-30.81V121.31z
		 M287.99,121.31h30.81V59.7h-30.81V121.31z"/>
</g>
</svg>
